<svg xmlns="http://www.w3.org/2000/svg" xmlns:xlink="http://www.w3.org/1999/xlink" viewBox="0 0 360 144"><defs><style>.a{fill:#518e5f;}.b{fill:#cde4b1;}.c{fill:#98cd7e;}.d{fill:url(#a);}.e,.f{fill:#231f20;}.f{font-size:36px;font-family:Minion Pro;font-weight:700;}.g{letter-spacing:-1px;}</style><radialGradient id="a" cx="46.35" cy="71.9" r="53.69" gradientTransform="translate(-163.62 4.19) rotate(-60) scale(1 3)" gradientUnits="userSpaceOnUse"><stop offset="0" stop-color="#231f20"/><stop offset="0.54" stop-color="#3b3b3c"/><stop offset="1" stop-color="#000315"/></radialGradient></defs><title>GMI-logo</title><rect class="a" width="88.42" height="144"/><rect class="b" x="88.42" width="271.58" height="144"/><path class="c" d="M39.27,12.79c-8.73,0-15.86,8.12-15.86,21,0,13.49,7.58,22.32,16.31,22.32,9.82,0,17.34-8.17,17.34-19.75C57.06,23.47,50.37,12.79,39.27,12.79Z"/><path class="c" d="M21.07,98.25c-7.87,19,3.84,32.85,20.4,32.85,16.19,0,28.6-10.09,28.6-26.5,0-11.59-7.55-14.74-11.78-14.9h-12c-5.82,0-14.58-.17-16.28.68C25.63,93.23,21.77,96.68,21.07,98.25Z"/><path class="d" d="M85.75,14.36H64.18c-0.45.45-6.54-7.27-19.31-7.27-16.19,0-34.5,10.4-34.5,30.23,0,12.16,5.66,21.1,18,23.9,0.93,0.21-9.37,7.43-11.19,9.54C15.93,73,14.58,80,14.58,81c0,2.58,3.32,4.54,10.12,7.31,0.84,0.34-10.67,6.38-13.26,8.39-5.2,4-4.64,13.65-4.64,16.69,0,9.5,8.9,23.35,33.59,23.35,23.65,0,41.91-16.17,41.91-36.87,0-19-10.44-21.57-20.62-21.57H40c-8.55,0-12.73-2.35-12.73-6.72,0-5.51,7.13-9.73,7.56-9.71C60.22,63,70,44.56,70,31.45c0-3.23-1-6-1.33-9.2h13.1C84.48,21.87,86.55,15.16,85.75,14.36ZM30,90.38c1.69-.85,10.45-0.68,16.28-0.68h12c4.23,0.16,11.78,3.31,11.78,14.9,0,16.41-12.41,26.5-28.6,26.5-16.56,0-28.26-13.84-20.4-32.85C21.77,96.68,25.63,93.23,30,90.38Zm9.73-34.24c-8.73,0-16.31-8.83-16.31-22.32,0-12.92,7.13-21,15.86-21,11.1,0,17.79,10.68,17.79,23.6C57.06,48,49.55,56.14,39.72,56.14Z"/><path class="e" d="M124.43,49.67c-15.91,0-25.36-10.63-25.36-20.48S108.72,8.71,124,8.71c11.7,0,24.74,6.54,24.74,19.7C148.76,40,138.7,49.67,124.43,49.67Zm-0.31-2c7.49,0,14-8.11,14-18.39,0-6-3.7-18.56-14.89-18.56-7.39,0-13.45,6.27-13.45,16.91C109.75,38.43,116,47.67,124.12,47.67Z"/><path class="e" d="M176.92,37.82l9.17-18.48A11.68,11.68,0,0,0,187.42,15c0-1.57-1-2.53-3.67-2.61s-3.57-.09-3.57-1.22S181.51,10,182.12,10c1.22,0,4.38.35,8.15,0.35,4,0,7-.35,7.85-0.35,0.31,0,1.53,0,1.53,1s-0.61,1-3.77,1.39c-2.34.26-3.36,2.09-5.71,6.19-4.28,7.5-7.94,13.77-12.22,22.92-2.85,6.1-7.54,16-9.48,21.26-1.32,3.57-1.83,5-7.13,5s-5.61-2.44-5.61-3.66c0-1.92.82-4.1,4.38-4.1L163,60.13c1.53,0,3-.17,4.48-3.14L170,52a6.9,6.9,0,0,0,.81-2.35,24.1,24.1,0,0,0-1.43-4.36L156.24,17.69c-2.34-5-3.16-5.05-7.13-5.4-0.41,0-1.63-.09-1.63-1.13S149.11,10,150.23,10s4.48,0.26,12.94.26c4.79,0,6.72-.26,8.35-0.26,1,0,1.73.26,1.73,1.13,0,1.13-.41,1.13-4.28,1.48-1.22.09-2.55,0.7-2.55,2.18a7.4,7.4,0,0,0,.92,2.88Z"/><path class="e" d="M210.82,22.92c-1.76,0-2.7.09-2.7,4.62,0,9.76,7.67,17.26,18.36,17.26,4.67,0,8.92-1.48,11.41-3.49,1.56-1.31,1.66-1.39,2.28-1.39a0.84,0.84,0,0,1,.93.78c0,1.31-7.26,9-20.44,9-13.69,0-24.06-7.58-24.06-19.7,0-12.9,11.62-21.27,25.72-21.27,15.66,0,19,9.67,19,12.64,0,1.57-1.14,1.57-2.8,1.57h-27.7Zm12.76-2.7c4.46,0,7.05-1.92,7.05-4.18,0-5.14-7.05-5.32-8.61-5.32-9.33,0-12.55,7.15-12.55,8.54,0,1,.42,1,2.8,1h11.31Z"/><path class="e" d="M261.93,13.77c0,0.52,0,1.22.6,1.22a1.7,1.7,0,0,0,.9-0.7c0.2-.26,5.1-5.23,10.9-5.23,3.6,0,7.2,1.74,7.2,5.23s-3.6,5-6.1,5a6.7,6.7,0,0,1-5.2-2.27c-1.7-1.66-2.5-1.83-3.1-1.83-2,0-4.9,1.31-4.9,8.54V40.26c0,3.57,0,5.93,5.1,6.19,2.2,0.09,3.6.17,3.6,1.48s-1.3,1.22-2.1,1.22c-1.7,0-9.8-.35-11.6-0.35-1.5,0-8.8.35-10.4,0.35-0.7,0-1.7,0-1.7-1.13,0-.78.7-1.13,3-1.39,4.4-.52,4.4-1.48,4.4-6.36V23.44c0-5.49-1.3-5.66-5.1-5.84a1.08,1.08,0,0,1-1.3-1c0-.61.4-1,1.6-1.22,2.3-.7,8-3.4,10.1-5.32,0.2-.17,2.5-2.18,3-2.18,1,0,1.1.7,1.1,1.48v4.36Z"/><text class="f" transform="translate(99.07 97.22)"><tspan class="g">M</tspan><tspan class="g" x="30.71" y="0">a</tspan><tspan x="46.01" y="0">n</tspan><tspan class="g" x="65.23" y="0">a</tspan><tspan class="g" x="80.64" y="0">g</tspan><tspan class="g" x="96.98" y="0">e</tspan><tspan x="111.56" y="0">m</tspan><tspan class="g" x="140.69" y="0">e</tspan><tspan class="g" x="155.27" y="0">n</tspan><tspan x="174.06" y="0">t</tspan><tspan class="g" x="0" y="33">I</tspan><tspan class="g" x="11.66" y="33">n</tspan><tspan class="g" x="30.46" y="33">t</tspan><tspan class="g" x="40.93" y="33">e</tspan><tspan x="55.51" y="33">rn</tspan><tspan class="g" x="87.95" y="33">a</tspan><tspan x="102.89" y="33">t</tspan><tspan x="113.72" y="33">i</tspan><tspan class="g" x="123.23" y="33">o</tspan><tspan x="140.65" y="33">n</tspan><tspan x="159.88" y="33">a</tspan><tspan class="g" x="175.57" y="33">l</tspan><tspan x="184.21" y="33">, </tspan><tspan class="g" x="199.19" y="33">I</tspan><tspan x="210.85" y="33">n</tspan><tspan x="230.07" y="33">c</tspan><tspan x="244.55" y="33">.</tspan></text></svg>